<?xml version="1.0" encoding="utf-8"?>
<!-- Generator: Adobe Illustrator 22.0.1, SVG Export Plug-In . SVG Version: 6.00 Build 0)  -->
<svg version="1.1" id="logo-madrabbits" xmlns="http://www.w3.org/2000/svg" xmlns:xlink="http://www.w3.org/1999/xlink" x="0px"
	 y="0px" viewBox="0 0 287 42" style="enable-background:new 0 0 287 42;" xml:space="preserve">
<style type="text/css">
	.st0{fill:#FFFFFF;}
</style>
<g>
	<path class="st0" d="M21.3,39.9l1.2,0.8C22,41.5,21.1,42,19.8,42c-1.8,0-3.1-1.2-3.1-3c0-1.8,1.2-3,3.1-3c1.2,0,2.1,0.5,2.6,1.2
		L21.3,38c-0.3-0.4-0.8-0.6-1.4-0.6c-0.8,0-1.4,0.6-1.4,1.6c0,1,0.6,1.6,1.4,1.6C20.5,40.6,21,40.3,21.3,39.9z M36.5,37.1V36h-1.7
		v5.9h1.7v-2.9c0-1,0.8-1.7,2-1.5v-1.6C37.6,35.9,37,36.3,36.5,37.1z M56.3,39.5h-4.3c0.2,0.8,0.8,1.2,1.6,1.2
		c0.6,0,1.1-0.2,1.5-0.6l0.9,0.9c-0.6,0.7-1.5,1-2.6,1c-1.9,0-3.2-1.2-3.2-3c0-1.8,1.3-3,3.1-3C55.4,35.9,56.4,37.3,56.3,39.5z
		 M54.7,38.5c0-0.8-0.5-1.3-1.3-1.3c-0.8,0-1.3,0.5-1.4,1.3H54.7z M73.9,38.1l0,3.9h-1.7v-0.7c-0.4,0.5-1.1,0.8-1.9,0.8
		c-1.3,0-2.1-0.8-2.1-1.9c0-1.1,0.8-1.8,2.3-1.8h1.7v-0.1c0-0.6-0.4-1-1.3-1c-0.5,0-1.2,0.2-1.8,0.5l-0.5-1.2
		c0.9-0.4,1.7-0.7,2.7-0.7C72.9,35.9,73.8,36.7,73.9,38.1z M72.2,39.4h-1.4c-0.7,0-1,0.2-1,0.7c0,0.5,0.4,0.8,0.9,0.8
		c0.7,0,1.3-0.4,1.4-0.9V39.4z M89.2,40.6c-0.4,0-0.6-0.2-0.6-0.7v-2.4h1.6v-1.2h-1.6v-1.6h-1.7v1.6H86v1.2h0.8v2.7
		c0,1.2,0.8,1.8,1.9,1.8c0.6,0,1.1-0.2,1.6-0.4L90,40.3C89.7,40.5,89.4,40.6,89.2,40.6z M102.6,41.9h1.7V36h-1.7V41.9z M103.5,35.2
		c0.5,0,0.8-0.4,0.8-0.8c0-0.5-0.3-0.8-0.8-0.8c-0.5,0-0.8,0.4-0.8,0.8C102.6,34.8,103,35.2,103.5,35.2z M119.6,40.3l-1.4-4.3
		l-1.8,0l2.3,5.9h1.8l2.3-5.9H121L119.6,40.3z M140.1,39.5h-4.3c0.2,0.8,0.8,1.2,1.6,1.2c0.6,0,1.1-0.2,1.5-0.6l0.9,0.9
		c-0.6,0.7-1.5,1-2.6,1c-1.9,0-3.2-1.2-3.2-3c0-1.8,1.3-3,3.1-3C139.2,35.9,140.2,37.3,140.1,39.5z M138.4,38.5
		c0-0.8-0.5-1.3-1.3-1.3c-0.8,0-1.3,0.5-1.4,1.3H138.4z M168.3,37.6c0-0.3,0.3-0.4,0.7-0.4c0.5,0,1.2,0.2,1.8,0.6l0.6-1.2
		c-0.7-0.4-1.5-0.7-2.4-0.7c-1.3,0-2.4,0.6-2.4,1.9c0,2.1,3.1,1.6,3.1,2.5c0,0.3-0.3,0.5-0.8,0.5c-0.7,0-1.5-0.3-2.1-0.7l-0.6,1.1
		c0.7,0.5,1.6,0.8,2.6,0.8c1.4,0,2.5-0.6,2.5-1.9C171.5,38,168.3,38.5,168.3,37.6z M186.5,40.6c-0.4,0-0.6-0.2-0.6-0.7v-2.4h1.6
		v-1.2h-1.6v-1.6h-1.7v1.6h-0.8v1.2h0.8v2.7c0,1.2,0.8,1.8,1.9,1.8c0.6,0,1.1-0.2,1.6-0.4l-0.4-1.2
		C186.9,40.5,186.7,40.6,186.5,40.6z M203.9,38.9c0,0.9-0.5,1.5-1.3,1.5c-0.7,0-1.1-0.5-1.1-1.2V36h-1.7v3.7c0,1.4,0.8,2.3,2.2,2.3
		c0.9,0,1.6-0.4,2-1.1v1h1.7V36h-1.7V38.9z M222.8,33.7h1.7v8.2h-1.7v-0.9c-0.4,0.6-1.1,0.9-1.9,0.9c-1.7,0-2.9-1.2-2.9-3.1
		c0-1.8,1.1-3,2.8-3c0.9,0,1.5,0.3,2,0.9V33.7z M222.8,39c0-1-0.6-1.6-1.5-1.6c-0.9,0-1.5,0.7-1.5,1.6c0,1,0.6,1.6,1.5,1.6
		C222.2,40.6,222.8,40,222.8,39z M238.3,35.2c0.5,0,0.8-0.4,0.8-0.8c0-0.5-0.3-0.8-0.8-0.8c-0.5,0-0.8,0.4-0.8,0.8
		C237.5,34.8,237.8,35.2,238.3,35.2z M237.5,41.9h1.7V36h-1.7V41.9z M258.1,39c0,1.8-1.3,3-3.2,3c-1.9,0-3.3-1.2-3.3-3
		c0-1.8,1.3-3,3.3-3C256.8,35.9,258.1,37.1,258.1,39z M256.3,39c0-1-0.6-1.6-1.5-1.6c-0.9,0-1.5,0.7-1.5,1.6c0,1,0.6,1.6,1.5,1.6
		C255.7,40.6,256.3,40,256.3,39z M15.5,16.4L8,0.3H0v27.5h6.5V10.4l6.5,14.7h4.8l6.5-14.7l0,17.4h6.5V0.3h-8L15.5,16.4z M53.1,0.3
		l11.8,27.5H57L55.1,23H43l-2,4.9h-7.5L45.5,0.3H53.1z M52.9,17.5l-3.8-9.8l-3.9,9.8H52.9z M94.4,14.1c0,8.2-6.1,13.8-15.2,13.8
		H67.4V0.3h12.1C88.4,0.3,94.4,5.9,94.4,14.1z M86.9,14.1c0-4.7-3.2-8-7.6-8h-4.6V22h5C83.9,22,86.9,18.8,86.9,14.1z M135.2,27.8
		h-8.3l-4.1-7.6h-0.2h-5.3v7.6h-7.3V0.3h12.6c7.5,0,11.7,3.5,11.7,9.7c0,4.2-1.8,7.2-5,8.9L135.2,27.8z M127.4,10.2
		c0-2.7-1.7-4.2-4.7-4.2h-5.3v8.4h5.3C125.7,14.5,127.4,13,127.4,10.2z M167.5,27.8h-7.8l-1.9-4.9h-12.1l-2,4.9h-7.5l12.1-27.5h7.5
		L167.5,27.8z M155.6,17.5l-3.8-9.8l-3.9,9.8H155.6z M194.8,20.2c0,4.7-4.2,7.7-10.8,7.7h-13.9V0.3h13.3c6.4,0,10.4,2.7,10.4,6.9
		c0,2.9-1.9,5.2-4.8,6C192.5,13.9,194.8,16.6,194.8,20.2z M177.4,11.3h5.6c2,0,3.3-1,3.3-2.7c0-1.6-1.2-2.6-3.3-2.6h-5.6V11.3z
		 M187.2,19.3c0-1.7-1.6-2.8-4.2-2.8h-5.6v5.8h5.6C185.6,22.3,187.2,21.2,187.2,19.3z M212.6,27.8h-13.9V0.3h13.3
		c6.4,0,10.4,2.7,10.4,6.9c0,2.9-1.9,5.2-4.8,6c3.6,0.7,5.8,3.4,5.8,6.9C223.4,24.9,219.2,27.8,212.6,27.8z M206.1,11.3h5.6
		c2,0,3.3-1,3.3-2.7c0-1.6-1.2-2.6-3.3-2.6h-5.6V11.3z M215.9,19.3c0-1.7-1.6-2.8-4.2-2.8h-5.6v5.8h5.6
		C214.3,22.3,215.9,21.2,215.9,19.3z M227.5,27.8h7.3V0.3h-7.3V27.8z M237.8,6.2h8.3v21.6h7.3V6.2h8.4V0.3h-24.1V6.2z M272.2,7.7
		c0-1.3,1.2-1.9,2.9-1.9c2.3,0,6.1,1.3,9.1,2.9l2.8-5.7C284,1.3,279.9,0,275.7,0c-6.8,0-11.2,3.3-11.2,8.4c0,9.7,14.8,6.9,14.8,11.6
		c0,1.5-1.4,2.2-3.5,2.2c-2.9,0-7.3-1.7-10.2-4.2l-2.8,5.6c3.4,2.7,8.3,4.4,12.9,4.4c6.3,0,11.3-2.9,11.3-8.5
		C287,9.7,272.2,12.3,272.2,7.7z"/>
</g>
</svg>
